<svg xmlns="http://www.w3.org/2000/svg" viewBox="0 0 329.7 67.2">
  <style type="text/css">
    
	.st0{fill:#F59530;}

  </style>
      <path class="st0" d="M0 51.9C0 60.3 6.7 67 15 67h42.5c8.3 0 15-6.8 15-15.1V35.2H0V51.9zM57.5 0H15C6.7 0 0 6.8 0 15.2v17.3h72.4V15.2C72.4 6.8 65.7 0 57.5 0z"/>
        <path class="st0" d="M79.8 67h7.5V38.9c0-1.3 0.2-2.5 0.6-3.7h-8.1V67z"/>
        <path class="st0" d="M119.8 30.7c-1.1-2.5-2.6-4.7-4.5-6.6 -1.9-1.9-4.1-3.4-6.6-4.5 -2.5-1.1-5.2-1.7-8.1-1.7 -1.4 0-2.7 0.2-4.1 0.5 -1.4 0.3-2.7 0.7-3.9 1.3 -1.3 0.6-2.4 1.2-3.4 2.1 -0.7 0.5-1.3 1.1-1.9 1.7V0h-7.4v32.4h9.3c0.6-1 1.3-2 2.2-2.9 1.2-1.3 2.6-2.3 4.2-3 1.6-0.8 3.3-1.1 5-1.1 1.8 0 3.5 0.4 5.2 1.1 1.6 0.7 3.1 1.7 4.3 2.9 0.9 0.9 1.7 2 2.4 3.1h8C120.2 31.9 120 31.3 119.8 30.7z"/>
        <path class="st0" d="M291.4 28.8c1.7-1.7 3.6-3 5.8-3.9 2.2-0.9 4.6-1.4 7.1-1.4 2.5 0 4.8 0.5 7.1 1.4 2.2 0.9 4.2 2.3 5.8 3.9 1.1 1.1 2 2.3 2.8 3.6h8.1c-0.1-0.2-0.2-0.4-0.2-0.6 -1.3-3.1-3.1-5.8-5.5-8.1 -2.3-2.3-5-4.1-8.1-5.5 -3.1-1.3-6.4-2-9.9-2 -3.5 0-6.8 0.7-9.9 2 -3.1 1.3-5.8 3.1-8.1 5.5 -2.3 2.3-4.1 5-5.5 8.1 -0.1 0.2-0.2 0.4-0.2 0.6h8.1C289.4 31.1 290.3 29.9 291.4 28.8z"/>
        <path class="st0" d="M121.4 38.8c0-1.2-0.1-2.4-0.3-3.6h-7.6c0.3 1.1 0.5 2.3 0.5 3.6v0.1l0.1 28.1h7.4L121.4 38.8 121.4 38.8z"/>
        <path class="st0" d="M182.8 28.7c1.6-1.6 3.6-2.9 5.8-3.9 2.2-0.9 4.5-1.4 7-1.4 2.5 0 4.8 0.5 7 1.4 2.2 0.9 4.1 2.2 5.8 3.9 1.1 1.1 2 2.3 2.8 3.7h8c-0.1-0.2-0.2-0.5-0.3-0.7 -1.3-3.1-3.1-5.8-5.4-8.1 -2.3-2.3-5-4.1-8.1-5.4 -3.1-1.3-6.4-2-9.9-2 -3.5 0-7.1 0.9-10.8 2.8 -3.1 1.6-5.6 3.5-7.3 5.8V0h-7.2v32.4h9.7C180.7 31.1 181.7 29.8 182.8 28.7z"/>
        <path class="st0" d="M236.9 28.7c1.6-1.6 3.6-2.9 5.8-3.9 2.2-0.9 4.6-1.4 7-1.4 2.5 0 4.8 0.5 7 1.4 2.2 0.9 4.1 2.2 5.8 3.9 1.1 1.1 2 2.3 2.8 3.7h8c-0.1-0.2-0.2-0.5-0.3-0.7 -1.3-3.1-3.1-5.8-5.4-8.1 -2.3-2.3-5-4.1-8.1-5.4 -3.1-1.3-6.4-2-9.9-2 -3.5 0-7.1 0.9-10.8 2.8 -3.1 1.6-5.6 3.5-7.3 5.8V0h-7.2v32.4h9.7C234.9 31.1 235.8 29.8 236.9 28.7z"/>
        <path class="st0" d="M328.9 35.2h-7.6c0.8 2 1.2 4.2 1.2 6.5v0.8c-0.1 2.2-0.6 4.3-1.4 6.3 -0.9 2.2-2.2 4.1-3.9 5.8 -1.7 1.7-3.6 3-5.8 3.9 -2.2 0.9-4.6 1.4-7.1 1.4 -2.5 0-4.8-0.5-7.1-1.4 -2.2-0.9-4.2-2.2-5.8-3.9 -1.7-1.7-3-3.6-3.9-5.8 -0.9-2.2-1.4-4.6-1.4-7.1 0-2.3 0.4-4.4 1.2-6.5h-7.7c-0.5 2.1-0.8 4.2-0.8 6.5 0 3.5 0.7 6.8 2 9.9 1.3 3.1 3.1 5.8 5.5 8.1 2.3 2.3 5 4.1 8.1 5.5 3.1 1.3 6.4 2 9.9 2 3.5 0 6.8-0.7 9.9-2 3.1-1.3 5.8-3.1 8.1-5.4l0.2-0.2v7.2h7.3V41.7C329.7 39.5 329.5 37.3 328.9 35.2z"/>
        <path class="st0" d="M266.7 35.2c0.8 2 1.2 4.1 1.2 6.3 0 2.5-0.5 4.8-1.4 7 -0.9 2.2-2.2 4.1-3.9 5.8 -1.7 1.7-3.6 3-5.8 3.9 -2.2 0.9-4.5 1.4-7 1.4 -2.5 0-4.8-0.5-7-1.4 -2.2-0.9-4.1-2.2-5.8-3.9 -1.7-1.6-2.9-3.6-3.9-5.8 -0.9-2.2-1.4-4.5-1.4-7 0-2.2 0.4-4.3 1.2-6.3h-8.4v6.3c0 3.5 0.7 6.8 2 9.9 1.3 3.1 3.1 5.8 5.4 8.1 2.3 2.3 5 4.1 8.1 5.4 3.1 1.3 6.4 2 9.9 2 3.5 0 6.8-0.7 9.9-2 3.1-1.3 5.8-3.1 8.1-5.4 2.3-2.3 4.1-5 5.4-8.1 1.3-3.1 2-6.4 2-9.9 0-2.2-0.3-4.3-0.8-6.3H266.7z"/>
          <polygon class="st0" points="132.4 16 125 16 125.1 32.4 132.5 32.4 "/>
          <rect x="159.4" y="16" class="st0" width="7.2" height="16.4"/>
          <path class="st0" d="M159.4 46.1c0 1.9-0.4 3.6-1.1 5.3 -0.7 1.6-1.7 3.1-2.9 4.3 -1.2 1.2-2.7 2.2-4.3 2.9 -1.6 0.7-3.4 1-5.3 1 -1.9 0-3.6-0.3-5.2-1 -1.6-0.7-3-1.7-4.3-2.9 -1.2-1.2-2.2-2.6-2.9-4.3 -0.7-1.6-1.1-3.4-1.1-5.3v-0.1l0-10.8h-7.4l0 10.8v0.1c0 2.8 0.6 5.5 1.7 8.1 1.1 2.5 2.6 4.7 4.5 6.6 1.9 1.9 4.1 3.4 6.6 4.5 2.5 1.1 5.2 1.7 8.1 1.7s5.5-0.6 8.1-1.7c2.5-1.1 4.7-2.6 6.6-4.5 1.9-1.9 3.4-4.1 4.4-6.6 1.1-2.5 1.6-5.2 1.6-8.1V35.2h-7.2V46.1z"/>
        <path class="st0" d="M212.6 35.2c0.8 2 1.2 4.1 1.2 6.3 0 2.5-0.5 4.8-1.4 7 -0.9 2.2-2.2 4.1-3.9 5.8 -1.7 1.7-3.6 2.9-5.8 3.9 -2.2 0.9-4.5 1.4-7 1.4 -2.5 0-4.8-0.5-7-1.4 -2.2-0.9-4.1-2.2-5.8-3.9 -1.7-1.6-2.9-3.6-3.9-5.8 -0.9-2.2-1.4-4.5-1.4-7 0-2.2 0.4-4.3 1.2-6.3h-8.4v6.3c0 3.5 0.7 6.8 2 9.9 1.3 3.1 3.1 5.8 5.4 8.1 2.3 2.3 5 4.1 8.1 5.4 3.1 1.3 6.4 2 9.9 2 3.5 0 6.8-0.7 9.9-2 3.1-1.3 5.8-3.1 8.1-5.4 2.3-2.3 4.1-5 5.4-8.1 1.3-3.1 2-6.4 2-9.9 0-2.2-0.3-4.3-0.8-6.3H212.6z"/>
</svg>
